<?xml version="1.0" encoding="UTF-8" standalone="no"?>
<!DOCTYPE svg PUBLIC "-//W3C//DTD SVG 1.1//EN" "http://www.w3.org/Graphics/SVG/1.1/DTD/svg11.dtd">
<svg width="100%" height="100%" viewBox="0 0 96 96" version="1.1" xmlns="http://www.w3.org/2000/svg" xmlns:xlink="http://www.w3.org/1999/xlink" xml:space="preserve" xmlns:serif="http://www.serif.com/" style="fill-rule:evenodd;clip-rule:evenodd;stroke-linejoin:round;stroke-miterlimit:2;">
    <g id="g4651" transform="matrix(0.217319,0,0,0.217319,-4.11644,-4.57594)">
        <path id="path4600" d="M331.816,234.945C319.075,234.856 306.344,234.696 293.644,233.749C293.238,216.434 293.893,169.916 296.67,152.766C298.057,144.197 291.358,138.322 284.747,137.489C283.138,136.606 281.243,136.04 278.969,136.024C250.979,135.826 222.991,135.539 195.027,134.219C187.481,133.866 183.581,139.304 183.259,145.134C183.041,145.888 182.858,146.668 182.772,147.515C180.674,167.571 179.959,216.87 179.751,237.01C170.418,237.391 156.372,237.401 147.023,237.338C143.382,237.313 140.617,238.638 138.649,240.636C130.986,243.292 125.792,253.235 133.394,260.446C168.346,293.64 196.963,328.44 230.173,363.356C236.995,370.531 246.389,366.387 249.695,359.502C277.522,326.119 314.86,292.818 342.682,259.436C347.116,254.124 346.196,247.737 342.941,243.324C341.642,238.766 337.971,234.985 331.816,234.945ZM237.729,336.04C213.72,310.868 194.259,285.859 169.413,261.511C174.874,261.373 185.04,261.151 190.494,260.724C194.98,260.378 198.149,258.083 200.076,255.046C202.392,253.107 203.956,250.166 203.981,246.221C204.123,226.838 204.664,178.298 206.154,158.987C227.885,159.807 249.624,160.089 271.373,160.271C269.342,178.864 268.904,226.646 269.691,245.459C270.078,254.66 278.665,258.479 285.53,256.899C286.611,257.316 287.769,257.64 289.08,257.762C296.544,258.438 304.024,258.783 311.504,258.986C290.055,284.676 259.17,310.346 237.729,336.04Z" style="fill-rule:nonzero;"/>
        <path id="path4604" d="M373.176,54.756C366.89,53.745 360.065,53.233 352.9,53.233L351.635,53.238C320.908,53.487 290.177,53.195 259.44,52.892C225.54,52.573 191.649,52.243 157.761,52.638L154.839,52.654C151.983,52.654 148.989,52.618 145.889,52.578C142.446,52.535 138.879,52.489 135.256,52.489C112.402,52.489 51.7,52.489 51.7,110.746C51.7,117.487 51.736,124.231 51.771,130.979C51.824,139.898 51.87,148.815 51.834,157.732C51.771,172.359 51.798,186.981 51.819,201.603C51.88,241.234 51.944,282.213 50.276,322.365L50.217,323.792C49.09,350.791 47.388,391.604 69.259,414.408C79.298,424.879 92.767,430.185 109.276,430.185C139.04,430.195 169.336,430.499 198.63,430.794C225.716,431.073 253.726,431.353 281.299,431.398L285.956,431.403C310.111,431.403 331.231,431.048 350.532,430.301L353.472,430.194C371.23,429.545 393.328,428.753 410.335,414.331C429.356,398.209 429.057,375.779 428.809,357.763C428.784,355.747 428.747,353.746 428.747,351.75C428.737,324.548 429.062,296.781 429.367,269.934C429.961,218.685 430.575,165.688 428.945,113.58C427.937,81.258 408.128,60.367 373.176,54.756ZM400.77,269.609C400.46,296.543 400.135,324.39 400.146,351.771C400.146,353.883 400.181,356.016 400.211,358.159C400.44,374.876 400.15,385.473 391.843,392.522C382.393,400.53 367.169,401.078 352.438,401.611L349.437,401.718C330.506,402.448 309.743,402.799 285.958,402.799L281.342,402.794C253.885,402.748 225.941,402.469 198.914,402.194C169.551,401.889 139.182,401.585 109.272,401.585C97.895,401.585 92.764,397.6 89.887,394.608C76.461,380.608 77.86,347.129 78.782,324.968L78.843,323.536C80.534,282.78 80.466,241.491 80.409,201.556C80.386,186.985 80.361,172.415 80.424,157.845C80.46,148.839 80.414,139.828 80.361,130.823C80.326,124.13 80.29,117.437 80.29,110.744C80.29,91.512 89.049,81.086 135.247,81.086C138.75,81.086 142.193,81.127 145.522,81.169C148.744,81.21 151.864,81.251 154.83,81.251L158.09,81.236C191.775,80.84 225.47,81.17 259.157,81.49C290.066,81.792 320.976,82.089 351.871,81.835L352.896,81.83C358.542,81.83 363.839,82.219 368.638,82.993C396.018,87.388 399.974,102.13 400.355,114.479C401.968,165.968 401.364,218.655 400.77,269.609Z" style="fill-rule:nonzero;"/>
    </g>
</svg>
