<?xml version="1.0" encoding="UTF-8" standalone="no"?><!DOCTYPE svg PUBLIC "-//W3C//DTD SVG 1.1//EN" "http://www.w3.org/Graphics/SVG/1.1/DTD/svg11.dtd"><svg width="100%" height="100%" viewBox="0 0 400 400" version="1.1" xmlns="http://www.w3.org/2000/svg" xmlns:xlink="http://www.w3.org/1999/xlink" xml:space="preserve" xmlns:serif="http://www.serif.com/" style="fill-rule:evenodd;clip-rule:evenodd;stroke-linejoin:round;stroke-miterlimit:2;"><g id="Icona"><path id="Sfondo" d="M320.757,30.515c-5.691,-0.916 -11.871,-1.379 -18.359,-1.379l-1.146,0.004c-27.823,0.226 -55.65,-0.039 -83.482,-0.313c-30.696,-0.289 -61.384,-0.588 -92.07,-0.23l-2.646,0.015c-2.586,0 -5.297,-0.033 -8.104,-0.069c-3.118,-0.039 -6.347,-0.081 -9.628,-0.081c-20.694,0 -75.66,0 -75.66,52.752c0,6.104 0.033,12.21 0.065,18.321c0.048,8.076 0.089,16.15 0.057,24.224c-0.057,13.245 -0.033,26.485 -0.014,39.725c0.055,35.886 0.113,72.992 -1.397,109.35l-0.054,1.292c-1.02,24.447 -2.561,61.403 17.243,82.052c9.09,9.482 21.286,14.286 36.235,14.286c26.951,0.009 54.384,0.285 80.91,0.552c24.526,0.252 49.889,0.506 74.856,0.547l4.217,0.004c21.872,0 40.996,-0.321 58.473,-0.998l2.663,-0.097c16.079,-0.587 36.089,-1.304 51.489,-14.363c17.223,-14.599 16.952,-34.909 16.728,-51.223c-0.023,-1.825 -0.056,-3.637 -0.056,-5.444c-0.009,-24.632 0.285,-49.774 0.561,-74.084c0.538,-46.406 1.094,-94.395 -0.382,-141.578c-0.913,-29.268 -18.85,-48.184 -50.499,-53.265Z" style="fill:#ccc;fill-rule:nonzero;"/><path id="Sfondo-freccia" serif:id="Sfondo freccia" d="M198.111,285.216c-21.74,-22.793 -39.362,-45.438 -61.86,-67.485c4.945,-0.125 14.15,-0.326 19.089,-0.713c4.062,-0.313 6.931,-2.391 8.676,-5.141c2.097,-1.756 3.513,-4.419 3.536,-7.991c0.129,-17.552 0.619,-61.504 1.968,-78.99c19.677,0.742 39.362,0.998 59.055,1.162c-1.839,16.836 -2.235,60.103 -1.523,77.138c0.351,8.331 8.126,11.789 14.342,10.359c0.979,0.377 2.028,0.671 3.215,0.781c6.759,0.612 13.532,0.925 20.305,1.108c-19.422,23.263 -47.388,46.507 -66.803,69.772Z" style="fill:#fff;fill-rule:nonzero;"/><path id="Freccia" d="M283.306,193.675c-11.537,-0.08 -23.065,-0.225 -34.564,-1.083c-0.368,-15.678 0.225,-57.8 2.74,-73.329c1.256,-7.76 -4.81,-13.079 -10.797,-13.834c-1.457,-0.799 -3.172,-1.312 -5.232,-1.326c-25.344,-0.18 -50.687,-0.439 -76.009,-1.635c-6.833,-0.319 -10.364,4.605 -10.656,9.884c-0.197,0.683 -0.363,1.389 -0.441,2.156c-1.899,18.16 -2.547,62.8 -2.735,81.037c-8.451,0.345 -21.17,0.354 -29.635,0.297c-3.297,-0.022 -5.801,1.177 -7.583,2.986c-6.939,2.405 -11.642,11.409 -4.758,17.938c31.649,30.057 57.561,61.569 87.633,93.185c6.177,6.497 14.683,2.744 17.677,-3.49c25.197,-30.228 59.007,-60.382 84.199,-90.609c4.015,-4.81 3.182,-10.594 0.235,-14.59c-1.176,-4.127 -4.501,-7.55 -10.074,-7.587Zm-85.195,91.541c-21.74,-22.793 -39.362,-45.438 -61.86,-67.485c4.945,-0.125 14.15,-0.326 19.089,-0.713c4.062,-0.313 6.931,-2.391 8.676,-5.141c2.097,-1.756 3.513,-4.419 3.536,-7.991c0.129,-17.552 0.619,-61.504 1.968,-78.99c19.677,0.742 39.362,0.998 59.055,1.162c-1.839,16.836 -2.235,60.103 -1.523,77.138c0.351,8.331 8.126,11.789 14.342,10.359c0.979,0.377 2.028,0.671 3.215,0.781c6.759,0.612 13.532,0.925 20.305,1.108c-19.422,23.263 -47.388,46.507 -66.803,69.772Z" style="fill-rule:nonzero;"/><path id="Cornice" d="M320.757,30.515c-5.691,-0.916 -11.871,-1.379 -18.359,-1.379l-1.146,0.004c-27.823,0.226 -55.65,-0.039 -83.482,-0.313c-30.696,-0.289 -61.384,-0.588 -92.07,-0.23l-2.646,0.015c-2.586,0 -5.297,-0.033 -8.104,-0.069c-3.118,-0.039 -6.347,-0.081 -9.628,-0.081c-20.694,0 -75.66,0 -75.66,52.752c0,6.104 0.033,12.21 0.065,18.321c0.048,8.076 0.089,16.15 0.057,24.224c-0.057,13.245 -0.033,26.485 -0.014,39.725c0.055,35.886 0.113,72.992 -1.397,109.35l-0.054,1.292c-1.02,24.447 -2.561,61.403 17.243,82.052c9.09,9.482 21.286,14.286 36.235,14.286c26.951,0.009 54.384,0.285 80.91,0.552c24.526,0.252 49.889,0.506 74.856,0.547l4.217,0.004c21.872,0 40.996,-0.321 58.473,-0.998l2.663,-0.097c16.079,-0.587 36.089,-1.304 51.489,-14.363c17.223,-14.599 16.952,-34.909 16.728,-51.223c-0.023,-1.825 -0.056,-3.637 -0.056,-5.444c-0.009,-24.632 0.285,-49.774 0.561,-74.084c0.538,-46.406 1.094,-94.395 -0.382,-141.578c-0.913,-29.268 -18.85,-48.184 -50.499,-53.265Zm24.987,194.548c-0.281,24.389 -0.575,49.604 -0.565,74.398c0,1.912 0.031,3.844 0.059,5.784c0.207,15.137 -0.056,24.733 -7.578,31.116c-8.557,7.251 -22.342,7.747 -35.681,8.23l-2.717,0.097c-17.142,0.661 -35.943,0.978 -57.48,0.978l-4.18,-0.004c-24.862,-0.042 -50.165,-0.294 -74.638,-0.543c-26.588,-0.277 -54.087,-0.552 -81.17,-0.552c-10.302,0 -14.948,-3.608 -17.554,-6.318c-12.157,-12.676 -10.89,-42.992 -10.055,-63.058l0.055,-1.297c1.531,-36.904 1.47,-74.291 1.418,-110.452c-0.021,-13.194 -0.043,-26.387 0.014,-39.58c0.032,-8.155 -0.009,-16.315 -0.057,-24.469c-0.032,-6.06 -0.065,-12.121 -0.065,-18.181c0,-17.415 7.932,-26.855 49.764,-26.855c3.172,0 6.289,0.037 9.304,0.075c2.917,0.037 5.742,0.074 8.428,0.074l2.952,-0.014c30.502,-0.358 61.012,-0.059 91.516,0.23c27.988,0.274 55.977,0.543 83.952,0.313l0.928,-0.005c5.112,0 9.909,0.353 14.254,1.053c24.793,3.98 28.375,17.329 28.72,28.511c1.461,46.623 0.914,94.331 0.376,140.469Z" style="fill-rule:nonzero;"/></g></svg>