<?xml version="1.0" encoding="UTF-8" standalone="no"?>
<!-- Generator: Adobe Illustrator 16.0.0, SVG Export Plug-In . SVG Version: 6.00 Build 0)  -->

<svg
   xmlns:dc="http://purl.org/dc/elements/1.1/"
   xmlns:cc="http://creativecommons.org/ns#"
   xmlns:rdf="http://www.w3.org/1999/02/22-rdf-syntax-ns#"
   xmlns:svg="http://www.w3.org/2000/svg"
   xmlns="http://www.w3.org/2000/svg"
   xmlns:sodipodi="http://sodipodi.sourceforge.net/DTD/sodipodi-0.dtd"
   xmlns:inkscape="http://www.inkscape.org/namespaces/inkscape"
   version="1.1"
   id="Capa_1"
   x="0px"
   y="0px"
   width="96"
   height="96"
   viewBox="0 0 96 96"
   xml:space="preserve"
   sodipodi:docname="icon.svg"
   inkscape:version="0.92.4 (5da689c313, 2019-01-14)"><metadata
   id="metadata4645"><rdf:RDF><cc:Work
       rdf:about=""><dc:format>image/svg+xml</dc:format><dc:type
         rdf:resource="http://purl.org/dc/dcmitype/StillImage" /><dc:title></dc:title></cc:Work></rdf:RDF></metadata><defs
   id="defs4643" /><sodipodi:namedview
   pagecolor="#ffffff"
   bordercolor="#666666"
   borderopacity="1"
   objecttolerance="10"
   gridtolerance="10"
   guidetolerance="10"
   inkscape:pageopacity="0"
   inkscape:pageshadow="2"
   inkscape:window-width="1600"
   inkscape:window-height="837"
   id="namedview4641"
   showgrid="false"
   inkscape:zoom="6.86"
   inkscape:cx="33.870147"
   inkscape:cy="49.637836"
   inkscape:window-x="-8"
   inkscape:window-y="-8"
   inkscape:window-maximized="1"
   inkscape:current-layer="g4606"
   scale-x="1" />
<g
   id="g4608"
   transform="translate(0,-330.825)">
	<g
   id="g4606">
		
		
		<g
   id="g4651"
   transform="matrix(0.21731866,0,0,0.21731866,-4.116441,326.24906)"><path
     id="path4600"
     d="m 331.816,234.945 c -12.741,-0.089 -25.472,-0.249 -38.172,-1.196 -0.406,-17.315 0.249,-63.833 3.026,-80.983 1.387,-8.569 -5.312,-14.444 -11.923,-15.277 -1.609,-0.883 -3.504,-1.449 -5.778,-1.465 -27.99,-0.198 -55.978,-0.485 -83.942,-1.805 -7.546,-0.353 -11.446,5.085 -11.768,10.915 -0.218,0.754 -0.401,1.534 -0.487,2.381 -2.098,20.056 -2.813,69.355 -3.021,89.495 -9.333,0.381 -23.379,0.391 -32.728,0.328 -3.641,-0.025 -6.406,1.3 -8.374,3.298 -7.663,2.656 -12.857,12.599 -5.255,19.81 34.952,33.194 63.569,67.994 96.779,102.91 6.822,7.175 16.216,3.031 19.522,-3.854 27.827,-33.383 65.165,-66.684 92.987,-100.066 4.434,-5.312 3.514,-11.699 0.259,-16.112 -1.299,-4.558 -4.97,-8.339 -11.125,-8.379 z M 237.729,336.04 c -24.009,-25.172 -43.47,-50.181 -68.316,-74.529 5.461,-0.138 15.627,-0.36 21.081,-0.787 4.486,-0.346 7.655,-2.641 9.582,-5.678 2.316,-1.939 3.88,-4.88 3.905,-8.825 0.142,-19.383 0.683,-67.923 2.173,-87.234 21.731,0.82 43.47,1.102 65.219,1.284 -2.031,18.593 -2.469,66.375 -1.682,85.188 0.387,9.201 8.974,13.02 15.839,11.44 1.081,0.417 2.239,0.741 3.55,0.863 7.464,0.676 14.944,1.021 22.424,1.224 -21.449,25.69 -52.334,51.36 -73.775,77.054 z"
     inkscape:connector-curvature="0" /><path
     id="path4604"
     d="M 373.176,54.756 C 366.89,53.745 360.065,53.233 352.9,53.233 l -1.265,0.005 c -30.727,0.249 -61.458,-0.043 -92.195,-0.346 -33.9,-0.319 -67.791,-0.649 -101.679,-0.254 l -2.922,0.016 c -2.856,0 -5.85,-0.036 -8.95,-0.076 -3.443,-0.043 -7.01,-0.089 -10.633,-0.089 -22.854,0 -83.556,0 -83.556,58.257 0,6.741 0.036,13.485 0.071,20.233 0.053,8.919 0.099,17.836 0.063,26.753 -0.063,14.627 -0.036,29.249 -0.015,43.871 0.061,39.631 0.125,80.61 -1.543,120.762 l -0.059,1.427 c -1.127,26.999 -2.829,67.812 19.042,90.616 10.039,10.471 23.508,15.777 40.017,15.777 29.764,0.01 60.06,0.314 89.354,0.609 27.086,0.279 55.096,0.559 82.669,0.604 l 4.657,0.005 c 24.155,0 45.275,-0.355 64.576,-1.102 l 2.94,-0.107 c 17.758,-0.649 39.856,-1.441 56.863,-15.863 19.021,-16.122 18.722,-38.552 18.474,-56.568 -0.025,-2.016 -0.062,-4.017 -0.062,-6.013 -0.01,-27.202 0.315,-54.969 0.62,-81.816 0.594,-51.249 1.208,-104.246 -0.422,-156.354 -1.008,-32.322 -20.817,-53.213 -55.769,-58.824 z m 27.594,214.853 c -0.31,26.934 -0.635,54.781 -0.624,82.162 0,2.112 0.035,4.245 0.065,6.388 0.229,16.717 -0.061,27.314 -8.368,34.363 -9.45,8.008 -24.674,8.556 -39.405,9.089 l -3.001,0.107 c -18.931,0.73 -39.694,1.081 -63.479,1.081 l -4.616,-0.005 c -27.457,-0.046 -55.401,-0.325 -82.428,-0.6 -29.363,-0.305 -59.732,-0.609 -89.642,-0.609 -11.377,0 -16.508,-3.985 -19.385,-6.977 -13.426,-14 -12.027,-47.479 -11.105,-69.64 l 0.061,-1.432 c 1.691,-40.756 1.623,-82.045 1.566,-121.98 -0.023,-14.571 -0.048,-29.141 0.015,-43.711 0.036,-9.006 -0.01,-18.017 -0.063,-27.022 -0.035,-6.693 -0.071,-13.386 -0.071,-20.079 0,-19.232 8.759,-29.658 54.957,-29.658 3.503,0 6.946,0.041 10.275,0.083 3.222,0.041 6.342,0.082 9.308,0.082 l 3.26,-0.015 c 33.685,-0.396 67.38,-0.066 101.067,0.254 30.909,0.302 61.819,0.599 92.714,0.345 l 1.025,-0.005 c 5.646,0 10.943,0.389 15.742,1.163 27.38,4.395 31.336,19.137 31.717,31.486 1.613,51.489 1.009,104.176 0.415,155.13 z"
     inkscape:connector-curvature="0" /></g>
	</g>
</g>
<g
   id="g4610"
   transform="translate(0,-330.825)">
</g>
<g
   id="g4612"
   transform="translate(0,-330.825)">
</g>
<g
   id="g4614"
   transform="translate(0,-330.825)">
</g>
<g
   id="g4616"
   transform="translate(0,-330.825)">
</g>
<g
   id="g4618"
   transform="translate(0,-330.825)">
</g>
<g
   id="g4620"
   transform="translate(0,-330.825)">
</g>
<g
   id="g4622"
   transform="translate(0,-330.825)">
</g>
<g
   id="g4624"
   transform="translate(0,-330.825)">
</g>
<g
   id="g4626"
   transform="translate(0,-330.825)">
</g>
<g
   id="g4628"
   transform="translate(0,-330.825)">
</g>
<g
   id="g4630"
   transform="translate(0,-330.825)">
</g>
<g
   id="g4632"
   transform="translate(0,-330.825)">
</g>
<g
   id="g4634"
   transform="translate(0,-330.825)">
</g>
<g
   id="g4636"
   transform="translate(0,-330.825)">
</g>
<g
   id="g4638"
   transform="translate(0,-330.825)">
</g>
</svg>