<?xml version="1.0" encoding="UTF-8" standalone="no"?><!DOCTYPE svg PUBLIC "-//W3C//DTD SVG 1.1//EN" "http://www.w3.org/Graphics/SVG/1.1/DTD/svg11.dtd"><svg width="100%" height="100%" viewBox="0 0 16 16" version="1.1" xmlns="http://www.w3.org/2000/svg" xmlns:xlink="http://www.w3.org/1999/xlink" xml:space="preserve" xmlns:serif="http://www.serif.com/" style="fill-rule:evenodd;clip-rule:evenodd;stroke-linejoin:round;stroke-miterlimit:2;"><path d="M7.375,11.866l0,-9.241c0,-0.345 0.28,-0.625 0.625,-0.625c0.345,0 0.625,0.28 0.625,0.625l0,9.241l2.798,-2.798c0.247,-0.247 0.647,-0.249 0.897,-0.003l0,0c0.117,0.115 0.183,0.271 0.183,0.434c0.001,0.163 -0.063,0.32 -0.179,0.436l-3.873,3.873c-0.003,0.003 -0.006,0.006 -0.009,0.009c-0.087,0.087 -0.193,0.143 -0.304,0.168c-0.035,0.008 -0.071,0.013 -0.108,0.014l0,0l0,0l-0.002,0l-0.001,0l-0.001,0l0,0l-0.002,0.001l-0.001,0l0,0l-0.001,0l-0.002,0l-0.001,0l0,0l-0.002,0l-0.001,0l0,0l-0.001,0l-0.002,0l-0.001,0l0,0l-0.001,0l-0.002,0l-0.001,0l0,0l0,0l-0.004,0l0,0l0,0c-0.001,0 -0.003,0 -0.004,0l0,0l0,0c-0.001,0 -0.003,0 -0.004,0l0,0l0,0l-0.004,0l0,0l0,0l-0.001,0l-0.002,0l-0.001,0l0,0l-0.001,0l-0.002,0l-0.001,0l0,0l-0.001,0l-0.002,0l0,0l-0.001,0l-0.002,0l-0.001,0l0,0l-0.001,0l-0.002,-0.001l0,0l-0.001,0l-0.001,0l-0.002,0l0,0l0,0c-0.037,-0.001 -0.073,-0.006 -0.108,-0.014c-0.111,-0.025 -0.217,-0.081 -0.304,-0.168c-0.003,-0.003 -0.006,-0.006 -0.009,-0.009l-3.856,-3.856c-0.247,-0.247 -0.249,-0.647 -0.003,-0.897c0,0 0,0 0,0c0,0 0,0 0,0c0.115,-0.117 0.271,-0.183 0.434,-0.183c0.163,-0.001 0.32,0.063 0.436,0.179l2.815,2.815Z" style="fill:#fff;fill-rule:nonzero;"/></svg>